<svg xmlns="http://www.w3.org/2000/svg" width="24" height="24" fill="#fff"><path d="M21.996 21.995H16v-2h4V16l1.997-.006v6zM2 1.995h5.998v2h-4V8L2 7.995v-6zm6 9.5a4.5 4.5 0 013.181 7.682A4.5 4.5 0 013.5 16.005a4.5 4.5 0 011.32-3.18A4.51 4.51 0 018 11.505zm0-2a6.5 6.5 0 00-4.596 11.097A6.5 6.5 0 0014.5 16.006 6.5 6.5 0 008 9.505zM16 1.5a6.48 6.48 0 00-6.48 6.15 7.81 7.81 0 011.99.62L11.5 8a4.5 4.5 0 017.682-3.182 4.5 4.5 0 01-3.181 7.682 2.25 2.25 0 01-.26-.01c.293.633.502 1.302.62 2a6.47 6.47 0 004.423-2.085 6.497 6.497 0 00-.251-9.058A6.512 6.512 0 0016 1.5z"/></svg>