<svg xmlns="http://www.w3.org/2000/svg" xmlns:xlink="http://www.w3.org/1999/xlink" width="474" height="474" fill="none"><g clip-path="url(#N)"><path fill="#f5f5f5" d="M107 132h368v187H107z"/><path fill-rule="evenodd" d="M65 283h64v64H49.674C22.792 347 1 325.208 1 298.326V210h64v73z" fill="url(#A)"/><path d="M129 283h44l34 34 34-34h64v240H129V283z" fill="url(#B)"/><path fill-rule="evenodd" d="M432.25 366.09c30.663-30.662 8.946-83.09-34.418-83.09H280v64h80.832l-29.618 29.62 45.255 45.255 55.782-55.783z" fill="url(#C)"/><path d="M74 173h24v29.5l-12-12-12 12V173z" fill="url(#D)"/><path fill="#e56700" d="M42 56h75v117H42z"/><path d="M42 56h65v117H42V56z" fill="url(#E)"/><path d="M117 167h-10V62h10v105z" fill="url(#F)"/><path d="M117 56h6v117h-6zm-86 0h20v117H31V56z" fill="#e56700"/><path d="M78.003 135.827h5.134v-4.76c4.294-.234 7.514-4.06 7.514-8.775 0-4.808-2.894-6.955-7.14-7.188v-.28c4.06-.513 5.974-2.334 5.974-6.58 0-4.2-2.334-7.094-6.348-7.748v-4.9h-5.134v4.76h-3.127v-4.76H69.74v4.76h-4.667v30.712h4.667v4.76h5.134v-4.76h3.127v4.76zm-6.254-29.824h7.98c1.774 0 2.847.933 2.847 2.707v1.54c0 1.774-1.073 2.707-2.847 2.707h-7.98v-6.954zm0 12.368h9.1c1.774 0 2.894.98 2.894 2.754v1.54c0 1.774-1.12 2.754-2.894 2.754h-9.1v-7.048z" fill="#fff"/><circle cx="207.003" cy="213.001" r="52" transform="rotate(45 207.003 213.001)" fill="#8c6207"/><path d="M170.234 176.232l73.54 73.54c10.154-10.154 15.23-23.462 15.23-36.77l.001-17.997L225 161h-17.998c-13.307 0-26.615 5.077-36.77 15.23z" fill="url(#G)"/><path d="M377 421.342l55.25-55.25c13.577-13.576 16.884-31.42 12.59-47.09l-85.09 85.09 17.25 17.25z" fill="url(#H)"/><path d="M1 230v68.326c0 18.29 10.086 34.222 25 42.54V230H1z" fill="url(#I)"/><path d="M207 317l34-34h28l-62 62-62-62h28l34 34z" fill="url(#J)"/><path d="M386.6 411.732l-14.142 14.142-45.255-45.255 14.142-14.142 45.255 45.255zM1 230v-20h64v20H1z" fill="#f0b90b"/><path d="M327.213 380.62l14.142-14.142 28 28-14.142 14.142-28-28z" fill="url(#K)"/><path d="M65 210v20H26v-20h39z" fill="url(#L)"/><path d="M187 365l-20 20-20-20 20-20 20 20z" fill="url(#M)"/><path d="M12 123v68h30v-68zm293 286v68h30v-68z" fill="#8c6207"/><path d="M183.52 114.807L305.192 236.48l-5.657 5.657-121.672-121.672zM261 239l11-11 11 11-11 11-11-11zm44 44h-25v45.368a150.002 150.002 0 01-43.934 106.066L195.5 475H305V283z" fill="#0b0e11"/><path d="M165 20l20-20 20 20-20 20-20-20z" fill="#e6e8ea"/><path d="M273 66l10-10 10 10-10 10-10-10z" fill="#f5f5f5"/><path d="M143 88l12-12 12 12-12 12-12-12z" fill="#ff7e0d"/><path d="M75 26l6-6 6 6-6 6-6-6z" fill="#ffa142"/></g><defs><linearGradient id="A" x1="-13" y1="206.5" x2="127.5" y2="347" xlink:href="#O"><stop stop-color="#474d57"/><stop offset="1" stop-color="#0b0e11"/></linearGradient><linearGradient id="B" x1="192.999" y1="283" x2="192.999" y2="474" xlink:href="#O"><stop stop-color="#2b2f36"/><stop offset="1" stop-color="#0b0e11"/></linearGradient><linearGradient id="C" x1="411.644" y1="442" x2="316.144" y2="346.5" xlink:href="#O"><stop stop-color="#474d57"/><stop offset="1" stop-color="#0b0e11"/></linearGradient><linearGradient id="D" x1="86" y1="173" x2="86" y2="202.5" xlink:href="#O"><stop stop-color="#02c076"/><stop offset="1" stop-color="#28d294"/></linearGradient><linearGradient id="E" x1="74.5" y1="56" x2="74.5" y2="166" xlink:href="#O"><stop stop-color="#ff7e0d"/><stop offset="1" stop-color="#e56700"/></linearGradient><linearGradient id="F" x1="107.087" y1="78.204" x2="107.087" y2="168.755" xlink:href="#O"><stop stop-color="#fff"/><stop offset="1" stop-color="#f5f5f5"/></linearGradient><linearGradient id="G" x1="171.5" y1="201.5" x2="229.5" y2="201.5" xlink:href="#O"><stop stop-color="#2b2f36"/><stop offset="1" stop-color="#0b0e11"/></linearGradient><linearGradient id="H" x1="455" y1="350" x2="409.463" y2="445.034" xlink:href="#O"><stop stop-color="#0b0e11" stop-opacity="0"/><stop offset="1" stop-color="#0b0e11"/></linearGradient><linearGradient id="I" x1="-3.825" y1="230" x2="30.436" y2="329.163" xlink:href="#O"><stop stop-color="#0b0e11" stop-opacity="0"/><stop offset="1" stop-color="#0b0e11" stop-opacity=".5"/></linearGradient><linearGradient id="J" x1="207" y1="345" x2="207" y2="283" xlink:href="#O"><stop stop-color="#f0b90b"/><stop offset="1" stop-color="#f8d33a"/></linearGradient><linearGradient id="K" x1="348.289" y1="425" x2="348.289" y2="346.5" xlink:href="#O"><stop stop-color="#f0b90b"/><stop offset="1" stop-color="#f8d33a"/></linearGradient><linearGradient id="L" x1="19.431" y1="193.521" x2="74.932" y2="248.164" xlink:href="#O"><stop stop-color="#f0b90b"/><stop offset="1" stop-color="#f8d33a"/></linearGradient><linearGradient id="M" x1="167.001" y1="385.001" x2="167.001" y2="345.001" xlink:href="#O"><stop stop-color="#f0b90b"/><stop offset="1" stop-color="#f8d33a"/></linearGradient><linearGradient id="O" gradientUnits="userSpaceOnUse"/><clipPath id="N"><path fill="#fff" d="M0 0h474v474H0z"/></clipPath></defs></svg>